<svg version="1.1" id="Layer_1" xmlns="http://www.w3.org/2000/svg" xmlns:xlink="http://www.w3.org/1999/xlink" x="0px" y="0px"
	 width="100%" viewBox="0 0 582 530" enable-background="new 0 0 582 530" xml:space="preserve">
<path fill="#FFFEFE" opacity="1.000000" stroke="none" 
	d="
M1.000000,205.000000 
	C1.000000,136.681900 1.000000,68.863792 1.000000,1.022846 
	C194.941208,1.022846 388.882416,1.022846 582.911804,1.022846 
	C582.911804,177.568176 582.911804,354.136414 582.911804,530.852295 
	C389.000092,530.852295 195.000061,530.852295 1.000000,530.852295 
	C1.000000,422.450775 1.000000,313.975372 1.000000,205.000000 
M140.524124,436.873169 
	C141.575119,435.502960 142.626099,434.132751 143.735153,432.734528 
	C143.735153,432.734528 143.763016,432.676392 144.473557,432.824219 
	C145.734070,431.623230 147.193939,430.569580 148.213074,429.190277 
	C150.261505,426.417816 151.780762,423.216217 154.028168,420.635712 
	C162.498383,410.910248 166.764786,398.836212 172.724838,387.714172 
	C173.069519,387.070923 172.437180,385.904114 172.304916,384.357605 
	C172.372726,383.945648 172.440521,383.533661 173.127167,382.890198 
	C176.175705,378.649200 177.717438,373.917358 177.819336,368.695190 
	C177.838486,367.713837 177.758560,366.541321 178.241104,365.788055 
	C182.236511,359.550812 181.744492,352.544891 181.766617,345.651764 
	C181.770676,344.383881 180.938583,343.113251 180.296997,340.948456 
	C180.339783,248.778305 180.385559,156.608154 180.406921,64.437988 
	C180.407410,62.293537 180.133102,60.149017 180.475067,57.652599 
	C180.497940,57.453327 180.520798,57.254055 181.166428,56.944191 
	C181.623505,51.626034 176.749207,46.493073 170.930145,46.207672 
	C162.920227,45.814804 155.251038,46.995483 147.811630,50.273411 
	C142.790344,52.485874 137.357269,53.744308 132.208374,55.693592 
	C128.890045,56.949848 125.361259,58.175346 122.604469,60.295712 
	C112.475601,68.086235 102.030060,75.625259 92.884148,84.478416 
	C86.566269,90.594070 82.191605,98.717216 76.999199,105.998779 
	C76.999199,105.998779 76.942909,105.949226 76.237419,105.993591 
	C75.469795,107.401573 74.669380,108.792816 73.940086,110.220375 
	C70.328697,117.289520 66.570251,124.291862 63.251976,131.496613 
	C62.408688,133.327576 62.985691,135.812698 62.872196,138.695297 
	C62.785332,139.388351 62.698463,140.081390 61.998604,141.054276 
	C58.261105,146.560867 56.930439,152.492172 58.841064,159.931381 
	C58.809402,161.595627 58.750530,163.259857 58.749969,164.924118 
	C58.714886,268.959290 58.683445,372.994446 58.666382,477.029602 
	C58.666164,478.354248 58.855019,479.678894 58.492420,481.401398 
	C60.206215,482.095398 62.110401,483.651276 63.598297,483.322601 
	C68.153595,482.316345 72.622398,480.774597 76.982224,479.075226 
	C80.186539,477.826233 83.166718,476.002197 86.825310,474.281250 
	C87.218330,474.213348 87.611351,474.145477 88.435593,474.586243 
	C91.523201,473.319672 94.849167,472.437714 97.647186,470.703827 
	C102.947090,467.419495 107.944099,463.646362 113.002342,460.003998 
	C113.002342,460.003998 113.076202,460.066498 113.719284,460.048187 
	C114.165001,459.388153 114.610710,458.728119 115.570412,457.826111 
	C115.918518,457.677063 116.266617,457.528015 117.295097,457.693329 
	C120.205261,455.138977 125.244026,455.030609 126.374931,449.828033 
	C126.374931,449.828033 126.708801,449.612671 127.362564,449.827118 
	C127.945442,449.266144 128.528320,448.705200 129.461243,447.809845 
	C129.682800,447.574127 129.884079,447.322205 130.755829,446.996857 
	C133.757278,443.600952 136.758728,440.205048 139.854935,436.853668 
	C139.854935,436.853668 139.810959,436.758667 140.524124,436.873169 
M527.870911,342.064728 
	C527.905090,249.446915 527.939514,156.829102 527.971680,64.211288 
	C527.972229,62.545624 528.033264,60.873775 527.916504,59.215351 
	C527.415344,52.100567 523.466003,47.685318 518.354309,47.453503 
	C512.622192,47.193550 506.547821,47.173981 501.137177,48.782009 
	C492.185364,51.442459 483.461700,55.098511 474.991821,59.079594 
	C468.358368,62.197502 461.924591,65.990456 456.006958,70.311737 
	C449.924469,74.753418 443.989899,79.687531 439.052002,85.334312 
	C432.702057,92.595932 426.953583,100.495056 421.809845,108.663513 
	C417.907837,114.860092 414.925537,121.743828 412.320953,128.619888 
	C409.545013,135.948166 406.730835,143.495880 405.684906,151.186020 
	C404.390869,160.700531 404.670471,170.460098 404.664764,180.114014 
	C404.606750,277.895996 404.629395,375.677979 404.629517,473.459961 
	C404.629517,474.792603 404.723602,476.132721 404.615784,477.456482 
	C404.244324,482.016876 406.614594,483.819122 410.677124,482.677460 
	C417.129120,480.864319 423.501465,478.707031 429.778503,476.351471 
	C434.623566,474.533264 439.270721,472.187561 444.412537,470.546722 
	C445.660522,469.429047 446.908539,468.311401 448.755035,466.922089 
	C449.372162,466.697052 449.989288,466.472015 451.280579,466.612640 
	C453.207977,465.103241 455.135406,463.593842 457.664398,461.753937 
	C462.652954,458.081268 467.925720,454.731445 472.557526,450.653595 
	C478.259552,445.633545 483.920624,440.409088 488.705139,434.543549 
	C495.130890,426.665863 500.818909,418.171173 506.578278,409.773071 
	C508.752960,406.602081 510.274017,402.977509 512.038391,399.531738 
	C514.351074,395.014954 517.181702,390.659607 518.757141,385.893524 
	C521.094971,378.821136 522.527466,371.449463 525.002197,364.002930 
	C527.328552,361.747620 529.005432,359.331482 527.025085,355.099365 
	C527.248779,352.157990 527.472473,349.216644 528.164917,345.945801 
	C528.061401,344.964508 527.957825,343.983215 527.870911,342.064728 
M354.483337,246.500153 
	C353.835754,216.148788 357.176758,185.482681 347.778748,155.807953 
	C344.703583,146.097992 342.008484,136.065887 337.348724,127.113228 
	C332.129669,117.086021 325.267181,107.823441 318.423950,98.753166 
	C307.513733,84.292343 293.732727,72.930405 277.902344,64.149498 
	C270.855316,60.240593 263.755920,56.314915 256.331573,53.238358 
	C251.747513,51.338768 246.275589,49.587734 241.614319,50.336193 
	C234.638107,51.456360 232.176620,56.766167 232.176544,65.690254 
	C232.175705,161.173035 232.082138,256.656036 232.317566,352.138245 
	C232.344101,362.901703 233.901031,373.707520 235.403198,384.401703 
	C236.155334,389.756409 237.593628,395.322754 240.104172,400.060791 
	C246.039902,411.263031 252.224991,422.422363 259.373688,432.870758 
	C268.937653,446.849243 282.097778,457.270142 296.792267,465.467987 
	C304.104980,469.547668 311.983337,472.812469 319.924408,475.507233 
	C326.939789,477.887909 334.384918,479.024658 341.673523,480.552246 
	C342.693420,480.765991 343.929932,480.155975 345.020294,479.790497 
	C353.232910,477.037567 354.438446,470.170502 354.445129,462.961304 
	C354.511871,391.140991 354.483704,319.320557 354.483337,246.500153 
z"/>
<path fill="#DE0847" opacity="1.000000" stroke="none" 
	d="
M354.482819,247.000168 
	C354.483704,319.320557 354.511871,391.140991 354.445129,462.961304 
	C354.438446,470.170502 353.232910,477.037567 345.020294,479.790497 
	C343.929932,480.155975 342.693420,480.765991 341.673523,480.552246 
	C334.384918,479.024658 326.939789,477.887909 319.924408,475.507233 
	C311.983337,472.812469 304.104980,469.547668 296.792267,465.467987 
	C282.097778,457.270142 268.937653,446.849243 259.373688,432.870758 
	C252.224991,422.422363 246.039902,411.263031 240.104172,400.060791 
	C237.593628,395.322754 236.155334,389.756409 235.403198,384.401703 
	C233.901031,373.707520 232.344101,362.901703 232.317566,352.138245 
	C232.082138,256.656036 232.175705,161.173035 232.176544,65.690254 
	C232.176620,56.766167 234.638107,51.456360 241.614319,50.336193 
	C246.275589,49.587734 251.747513,51.338768 256.331573,53.238358 
	C263.755920,56.314915 270.855316,60.240593 277.902344,64.149498 
	C293.732727,72.930405 307.513733,84.292343 318.423950,98.753166 
	C325.267181,107.823441 332.129669,117.086021 337.348724,127.113228 
	C342.008484,136.065887 344.703583,146.097992 347.778748,155.807953 
	C357.176758,185.482681 353.835754,216.148788 354.482819,247.000168 
z"/>
<path fill="#010101" opacity="1.000000" stroke="none" 
	d="
M179.986969,58.004528 
	C180.133102,60.149017 180.407410,62.293537 180.406921,64.437988 
	C180.385559,156.608154 180.339783,248.778305 180.105133,341.730255 
	C179.665588,343.938293 179.417923,345.364532 178.845459,346.838470 
	C175.435471,350.079559 174.344360,353.731598 175.950424,358.427887 
	C176.114304,359.652954 176.290466,360.457031 176.383698,361.587433 
	C176.090485,363.864197 175.880203,365.814606 175.316284,367.852539 
	C172.288910,374.839691 169.587662,381.728912 166.983978,388.654816 
	C166.722412,389.350586 167.052048,390.268646 167.089813,391.458679 
	C164.034897,398.057556 161.395889,404.520294 157.846954,410.437225 
	C154.363541,416.244904 149.955200,421.497772 145.644409,427.117889 
	C137.923126,434.393585 130.932877,442.064056 122.976685,448.549530 
	C115.242584,454.853973 106.671471,460.190277 98.169167,465.470703 
	C93.356651,468.459595 87.927841,470.449432 82.806305,472.950073 
	C79.773300,474.430969 76.798119,476.030273 73.501633,477.619690 
	C72.812141,477.716919 72.417946,477.770752 71.750931,477.568054 
	C68.059296,477.978699 64.640495,478.645844 60.915825,479.372650 
	C60.840061,478.086212 60.677994,476.618286 60.677944,475.150360 
	C60.674374,373.837036 60.669121,272.523682 60.742752,171.210373 
	C60.745872,166.914612 61.089783,162.534805 61.973644,158.341415 
	C63.830723,149.530777 65.840042,140.725388 68.397621,132.098938 
	C70.018990,126.630226 72.521187,121.380882 75.028831,116.228050 
	C77.735657,110.665932 80.909164,105.330933 84.179489,99.758591 
	C85.596054,98.033440 86.712212,96.446556 88.175720,94.814514 
	C90.163223,93.069016 91.939247,91.477539 93.410179,89.641609 
	C95.385361,87.176315 97.124817,84.522171 99.107758,81.832886 
	C99.250053,81.716690 99.598854,81.601189 99.974045,81.713684 
	C100.769356,81.083313 101.189476,80.340446 101.675529,79.427979 
	C101.741470,79.258385 101.989876,78.992424 102.361206,79.026772 
	C103.992767,77.588356 105.252998,76.115593 106.557678,74.619949 
	C106.602127,74.597069 106.652222,74.510521 107.017975,74.651657 
	C109.545380,73.706657 111.917946,72.904816 113.831978,71.484894 
	C121.864944,65.525650 130.953766,61.602062 139.939819,57.443169 
	C143.105927,55.977840 146.118011,54.179665 149.543732,52.428795 
	C150.601074,52.279423 151.315094,52.234715 152.302368,52.470314 
	C156.083298,52.134762 159.714127,51.898338 163.068405,50.809780 
	C167.553757,49.354160 171.401733,49.114494 174.765869,53.074528 
	C176.306244,54.887764 178.234573,56.371410 179.986969,58.004528 
z"/>
<path fill="#7D7D7D" opacity="1.000000" stroke="none" 
	d="
M444.005859,470.076355 
	C439.270721,472.187561 434.623566,474.533264 429.778503,476.351471 
	C423.501465,478.707031 417.129120,480.864319 410.677124,482.677460 
	C406.614594,483.819122 404.244324,482.016876 404.615784,477.456482 
	C404.723602,476.132721 404.629517,474.792603 404.629517,473.459961 
	C404.629395,375.677979 404.606750,277.895996 404.664764,180.114014 
	C404.670471,170.460098 404.390869,160.700531 405.684906,151.186020 
	C406.730835,143.495880 409.545013,135.948166 412.320953,128.619888 
	C414.925537,121.743828 417.907837,114.860092 421.809845,108.663513 
	C426.953583,100.495056 432.702057,92.595932 439.052002,85.334312 
	C443.989899,79.687531 449.924469,74.753418 456.006958,70.311737 
	C461.924591,65.990456 468.358368,62.197502 474.991821,59.079594 
	C483.461700,55.098511 492.185364,51.442459 501.137177,48.782009 
	C506.547821,47.173981 512.622192,47.193550 518.354309,47.453503 
	C523.466003,47.685318 527.415344,52.100567 527.916504,59.215351 
	C528.033264,60.873775 527.972229,62.545624 527.971680,64.211288 
	C527.939514,156.829102 527.905090,249.446915 527.634521,342.802521 
	C527.497498,344.451965 527.596802,345.363617 527.696106,346.275269 
	C527.472473,349.216644 527.248779,352.157990 526.711853,355.760315 
	C525.714172,359.015869 525.029724,361.610535 524.345337,364.205170 
	C522.527466,371.449463 521.094971,378.821136 518.757141,385.893524 
	C517.181702,390.659607 514.351074,395.014954 512.038391,399.531738 
	C510.274017,402.977509 508.752960,406.602081 506.578278,409.773071 
	C500.818909,418.171173 495.130890,426.665863 488.705139,434.543549 
	C483.920624,440.409088 478.259552,445.633545 472.557526,450.653595 
	C467.925720,454.731445 462.652954,458.081268 457.015137,461.895020 
	C454.446045,463.439697 452.526215,464.843323 450.606384,466.246979 
	C449.989288,466.472015 449.372162,466.697052 448.126648,467.084473 
	C446.334106,468.190033 445.169983,469.133179 444.005859,470.076355 
M406.866577,291.500000 
	C406.866577,304.165039 406.866608,316.830078 406.866608,329.495117 
	C406.866638,342.160278 406.866608,354.825439 406.866608,367.490601 
	C406.866608,379.989105 406.866608,392.487640 406.866608,404.986145 
	C406.866608,417.651306 406.791412,430.317047 406.888000,442.981476 
	C406.982513,455.379578 406.464233,467.814850 407.173889,479.769440 
	C412.983032,478.470337 417.636719,478.069885 421.756226,476.372833 
	C429.901886,473.017090 437.705688,468.841980 445.735504,465.191895 
	C457.584808,459.805664 467.592896,451.719879 476.829926,442.892303 
	C490.729309,429.609039 502.938965,414.832825 510.422729,396.811157 
	C514.435486,387.148102 519.241821,377.550537 521.372009,367.435272 
	C524.158630,354.202911 525.874634,340.493225 525.934875,326.979431 
	C526.323547,239.824844 526.136047,152.667694 526.128662,65.511383 
	C526.128479,63.514137 526.213684,61.489220 525.929321,59.524937 
	C525.127258,53.983513 518.623474,48.200809 513.775818,49.071613 
	C507.271393,50.240025 500.599243,51.225506 494.467560,53.533901 
	C486.236206,56.632751 478.413849,60.841488 470.485809,64.716805 
	C458.956970,70.352219 448.877960,78.189781 440.627228,87.801102 
	C433.870056,95.672562 428.164246,104.598495 422.984222,113.626099 
	C418.452728,121.523422 414.067474,129.899933 411.851715,138.631683 
	C409.018890,149.794922 407.249847,161.510117 407.084717,173.017044 
	C406.522919,212.171021 406.867737,251.337982 406.866577,291.500000 
z"/>
<path fill="#5E5E5E" opacity="1.000000" stroke="none" 
	d="
M83.879089,99.896851 
	C80.909164,105.330933 77.735657,110.665932 75.028831,116.228050 
	C72.521187,121.380882 70.018990,126.630226 68.397621,132.098938 
	C65.840042,140.725388 63.830723,149.530777 61.973644,158.341415 
	C61.089783,162.534805 60.745872,166.914612 60.742752,171.210373 
	C60.669121,272.523682 60.674374,373.837036 60.677944,475.150360 
	C60.677994,476.618286 60.840061,478.086212 60.915825,479.372650 
	C64.640495,478.645844 68.059296,477.978699 71.568039,477.883575 
	C67.495415,479.661682 63.864704,483.519165 58.955620,481.003540 
	C58.855019,479.678894 58.666164,478.354248 58.666382,477.029602 
	C58.683445,372.994446 58.714886,268.959290 58.749969,164.924118 
	C58.750530,163.259857 58.809402,161.595627 59.135071,159.198349 
	C60.489922,152.568359 61.550758,146.671402 62.611595,140.774445 
	C62.698463,140.081390 62.785332,139.388351 63.177006,138.128906 
	C65.785248,132.143372 68.086067,126.723106 70.392860,121.305397 
	C72.572945,116.185287 74.759308,111.067841 76.942909,105.949226 
	C76.942909,105.949226 76.999199,105.998779 77.324440,105.979370 
	C79.726151,103.938919 81.802620,101.917885 83.879089,99.896851 
z"/>
<path fill="#B4B4B4" opacity="1.000000" stroke="none" 
	d="
M84.179489,99.758591 
	C81.802620,101.917885 79.726151,103.938919 77.299126,105.951607 
	C82.191605,98.717216 86.566269,90.594070 92.884148,84.478416 
	C102.030060,75.625259 112.475601,68.086235 122.604469,60.295712 
	C125.361259,58.175346 128.890045,56.949848 132.208374,55.693592 
	C137.357269,53.744308 142.790344,52.485874 147.811630,50.273411 
	C155.251038,46.995483 162.920227,45.814804 170.930145,46.207672 
	C176.749207,46.493073 181.623505,51.626034 180.639694,56.692978 
	C176.704315,49.592388 173.277176,47.178841 166.065445,48.164036 
	C161.292419,48.816078 156.701538,50.801517 152.029114,52.190010 
	C151.315094,52.234715 150.601074,52.279423 149.186020,52.265450 
	C142.437424,54.725609 136.122284,56.755051 130.406342,59.880379 
	C122.257912,64.335732 114.548920,69.594772 106.652222,74.510521 
	C106.652222,74.510521 106.602127,74.597069 106.247185,74.683044 
	C104.591454,76.176826 103.290665,77.584625 101.989876,78.992424 
	C101.989876,78.992424 101.741470,79.258385 101.382278,79.499557 
	C100.548340,80.360893 100.073601,80.981041 99.598862,81.601189 
	C99.598854,81.601189 99.250053,81.716690 98.760300,81.821297 
	C96.815178,83.222870 95.119949,84.336182 93.955978,85.856277 
	C91.752396,88.734085 89.853729,91.845375 87.828377,94.859665 
	C86.712212,96.446556 85.596054,98.033440 84.179489,99.758591 
z"/>
<path fill="#5E5E5E" opacity="1.000000" stroke="none" 
	d="
M73.796928,477.576355 
	C76.798119,476.030273 79.773300,474.430969 82.806305,472.950073 
	C87.927841,470.449432 93.356651,468.459595 98.169167,465.470703 
	C106.671471,460.190277 115.242584,454.853973 122.976685,448.549530 
	C130.932877,442.064056 137.923126,434.393585 145.878540,427.304871 
	C145.535034,429.137512 144.649017,430.906952 143.763016,432.676392 
	C143.763016,432.676392 143.735153,432.734528 143.386749,432.796753 
	C141.962570,434.158905 140.886765,435.458801 139.810959,436.758667 
	C139.810959,436.758667 139.854935,436.853668 139.474274,436.873108 
	C136.084091,440.279755 133.074585,443.666931 130.065063,447.054108 
	C129.884079,447.322205 129.682800,447.574127 128.970978,447.924438 
	C127.890068,448.563568 127.299438,449.088104 126.708801,449.612671 
	C126.708801,449.612671 126.374931,449.828033 125.862869,449.916504 
	C122.438774,452.462952 119.526756,454.920959 116.614723,457.378967 
	C116.266617,457.528015 115.918518,457.677063 114.977669,457.927368 
	C113.948685,458.707947 113.512451,459.387238 113.076202,460.066498 
	C113.076202,460.066498 113.002342,460.003998 112.674255,460.025787 
	C104.232239,464.724243 96.118301,469.400909 88.004364,474.077606 
	C87.611351,474.145477 87.218330,474.213348 86.166855,474.235962 
	C81.604568,475.319244 77.700745,476.447784 73.796928,477.576355 
z"/>
<path fill="#B4B4B4" opacity="1.000000" stroke="none" 
	d="
M144.118286,432.750305 
	C144.649017,430.906952 145.535034,429.137512 146.186920,427.181091 
	C149.955200,421.497772 154.363541,416.244904 157.846954,410.437225 
	C161.395889,404.520294 164.034897,398.057556 167.411865,391.357452 
	C169.254105,388.914368 170.756805,386.947662 172.259521,384.980957 
	C172.437180,385.904114 173.069519,387.070923 172.724838,387.714172 
	C166.764786,398.836212 162.498383,410.910248 154.028168,420.635712 
	C151.780762,423.216217 150.261505,426.417816 148.213074,429.190277 
	C147.193939,430.569580 145.734070,431.623230 144.118286,432.750305 
z"/>
<path fill="#B4B4B4" opacity="1.000000" stroke="none" 
	d="
M179.170258,346.790771 
	C179.417923,345.364532 179.665588,343.938293 180.202850,342.177979 
	C180.938583,343.113251 181.770676,344.383881 181.766617,345.651764 
	C181.744492,352.544891 182.236511,359.550812 178.241104,365.788055 
	C177.758560,366.541321 177.838486,367.713837 177.819336,368.695190 
	C177.717438,373.917358 176.175705,378.649200 172.674713,382.640320 
	C172.717102,380.486115 173.251785,378.591095 173.697571,376.675354 
	C174.386948,373.712646 175.015549,370.735840 175.669922,367.765015 
	C175.880203,365.814606 176.090485,363.864197 176.715912,361.466980 
	C177.897995,357.278290 178.664932,353.536346 179.530334,349.410706 
	C179.475937,348.281555 179.323105,347.536163 179.170258,346.790771 
z"/>
<path fill="#404040" opacity="1.000000" stroke="none" 
	d="
M152.302368,52.470314 
	C156.701538,50.801517 161.292419,48.816078 166.065445,48.164036 
	C173.277176,47.178841 176.704315,49.592388 180.328308,56.748272 
	C180.520798,57.254055 180.497940,57.453327 180.231018,57.828564 
	C178.234573,56.371410 176.306244,54.887764 174.765869,53.074528 
	C171.401733,49.114494 167.553757,49.354160 163.068405,50.809780 
	C159.714127,51.898338 156.083298,52.134762 152.302368,52.470314 
z"/>
<path fill="#B4B4B4" opacity="1.000000" stroke="none" 
	d="
M76.590164,105.971405 
	C74.759308,111.067841 72.572945,116.185287 70.392860,121.305397 
	C68.086067,126.723106 65.785248,132.143372 63.195953,137.779877 
	C62.985691,135.812698 62.408688,133.327576 63.251976,131.496613 
	C66.570251,124.291862 70.328697,117.289520 73.940086,110.220375 
	C74.669380,108.792816 75.469795,107.401573 76.590164,105.971405 
z"/>
<path fill="#B4B4B4" opacity="1.000000" stroke="none" 
	d="
M73.501633,477.619690 
	C77.700745,476.447784 81.604568,475.319244 85.877594,474.312592 
	C83.166718,476.002197 80.186539,477.826233 76.982224,479.075226 
	C72.622398,480.774597 68.153595,482.316345 63.598297,483.322601 
	C62.110401,483.651276 60.206215,482.095398 58.724022,481.202454 
	C63.864704,483.519165 67.495415,479.661682 71.840858,478.140076 
	C72.417946,477.770752 72.812141,477.716919 73.501633,477.619690 
z"/>
<path fill="#B4B4B4" opacity="1.000000" stroke="none" 
	d="
M88.219978,474.331909 
	C96.118301,469.400909 104.232239,464.724243 112.706558,460.061951 
	C107.944099,463.646362 102.947090,467.419495 97.647186,470.703827 
	C94.849167,472.437714 91.523201,473.319672 88.219978,474.331909 
z"/>
<path fill="#5C5C5C" opacity="1.000000" stroke="none" 
	d="
M175.316284,367.852539 
	C175.015549,370.735840 174.386948,373.712646 173.697571,376.675354 
	C173.251785,378.591095 172.717102,380.486115 172.365295,382.756073 
	C172.440521,383.533661 172.372726,383.945648 172.282227,384.669281 
	C170.756805,386.947662 169.254105,388.914368 167.429352,390.982300 
	C167.052048,390.268646 166.722412,389.350586 166.983978,388.654816 
	C169.587662,381.728912 172.288910,374.839691 175.316284,367.852539 
z"/>
<path fill="#B4B4B4" opacity="1.000000" stroke="none" 
	d="
M62.305099,140.914368 
	C61.550758,146.671402 60.489922,152.568359 59.131020,158.729660 
	C56.930439,152.492172 58.261105,146.560867 62.305099,140.914368 
z"/>
<path fill="#B4B4B4" opacity="1.000000" stroke="none" 
	d="
M130.410446,447.025482 
	C133.074585,443.666931 136.084091,440.279755 139.426880,436.850891 
	C136.758728,440.205048 133.757278,443.600952 130.410446,447.025482 
z"/>
<path fill="#B4B4B4" opacity="1.000000" stroke="none" 
	d="
M116.954910,457.536163 
	C119.526756,454.920959 122.438774,452.462952 125.704361,450.036194 
	C125.244026,455.030609 120.205261,455.138977 116.954910,457.536163 
z"/>
<path fill="#C4C4C4" opacity="1.000000" stroke="none" 
	d="
M524.673767,364.104065 
	C525.029724,361.610535 525.714172,359.015869 526.691528,356.210358 
	C529.005432,359.331482 527.328552,361.747620 524.673767,364.104065 
z"/>
<path fill="#C5C5C5" opacity="1.000000" stroke="none" 
	d="
M450.943481,466.429810 
	C452.526215,464.843323 454.446045,463.439697 456.714355,462.060242 
	C455.135406,463.593842 453.207977,465.103241 450.943481,466.429810 
z"/>
<path fill="#B4B4B4" opacity="1.000000" stroke="none" 
	d="
M140.167542,436.815918 
	C140.886765,435.458801 141.962570,434.158905 143.357727,432.810791 
	C142.626099,434.132751 141.575119,435.502960 140.167542,436.815918 
z"/>
<path fill="#C5C5C5" opacity="1.000000" stroke="none" 
	d="
M444.209198,470.311523 
	C445.169983,469.133179 446.334106,468.190033 447.827393,467.220306 
	C446.908539,468.311401 445.660522,469.429047 444.209198,470.311523 
z"/>
<path fill="#C4C4C4" opacity="1.000000" stroke="none" 
	d="
M527.930542,346.110535 
	C527.596802,345.363617 527.497498,344.451965 527.626221,343.271118 
	C527.957825,343.983215 528.061401,344.964508 527.930542,346.110535 
z"/>
<path fill="#B4B4B4" opacity="1.000000" stroke="none" 
	d="
M127.035683,449.719910 
	C127.299438,449.088104 127.890068,448.563568 128.795959,448.091614 
	C128.528320,448.705200 127.945442,449.266144 127.035683,449.719910 
z"/>
<path fill="#B4B4B4" opacity="1.000000" stroke="none" 
	d="
M113.397751,460.057343 
	C113.512451,459.387238 113.948685,458.707947 114.720673,458.048401 
	C114.610710,458.728119 114.165001,459.388153 113.397751,460.057343 
z"/>
<path fill="#404040" opacity="1.000000" stroke="none" 
	d="
M107.017975,74.651657 
	C114.548920,69.594772 122.257912,64.335732 130.406342,59.880379 
	C136.122284,56.755051 142.437424,54.725609 148.842697,52.370113 
	C146.118011,54.179665 143.105927,55.977840 139.939819,57.443169 
	C130.953766,61.602062 121.864944,65.525650 113.831978,71.484894 
	C111.917946,72.904816 109.545380,73.706657 107.017975,74.651657 
z"/>
<path fill="#404040" opacity="1.000000" stroke="none" 
	d="
M88.175720,94.814514 
	C89.853729,91.845375 91.752396,88.734085 93.955978,85.856277 
	C95.119949,84.336182 96.815178,83.222870 98.618011,81.937500 
	C97.124817,84.522171 95.385361,87.176315 93.410179,89.641609 
	C91.939247,91.477539 90.163223,93.069016 88.175720,94.814514 
z"/>
<path fill="#2F2F2F" opacity="1.000000" stroke="none" 
	d="
M178.845459,346.838470 
	C179.323105,347.536163 179.475937,348.281555 179.236862,349.573242 
	C177.884186,352.748627 176.923431,355.377747 175.962677,358.006866 
	C174.344360,353.731598 175.435471,350.079559 178.845459,346.838470 
z"/>
<path fill="#616161" opacity="1.000000" stroke="none" 
	d="
M175.950409,358.427887 
	C176.923431,355.377747 177.884186,352.748627 179.138412,349.956970 
	C178.664932,353.536346 177.897995,357.278290 176.798828,361.140625 
	C176.290466,360.457031 176.114304,359.652954 175.950409,358.427887 
z"/>
<path fill="#404040" opacity="1.000000" stroke="none" 
	d="
M102.361206,79.026772 
	C103.290665,77.584625 104.591454,76.176826 106.202728,74.705933 
	C105.252998,76.115593 103.992767,77.588356 102.361206,79.026772 
z"/>
<path fill="#404040" opacity="1.000000" stroke="none" 
	d="
M99.974052,81.713684 
	C100.073601,80.981041 100.548340,80.360893 101.316330,79.669159 
	C101.189476,80.340446 100.769356,81.083313 99.974052,81.713684 
z"/>
<path fill="#010101" opacity="1.000000" stroke="none" 
	d="
M406.866486,291.000000 
	C406.867737,251.337982 406.522919,212.171021 407.084717,173.017044 
	C407.249847,161.510117 409.018890,149.794922 411.851715,138.631683 
	C414.067474,129.899933 418.452728,121.523422 422.984222,113.626099 
	C428.164246,104.598495 433.870056,95.672562 440.627228,87.801102 
	C448.877960,78.189781 458.956970,70.352219 470.485809,64.716805 
	C478.413849,60.841488 486.236206,56.632751 494.467560,53.533901 
	C500.599243,51.225506 507.271393,50.240025 513.775818,49.071613 
	C518.623474,48.200809 525.127258,53.983513 525.929321,59.524937 
	C526.213684,61.489220 526.128479,63.514137 526.128662,65.511383 
	C526.136047,152.667694 526.323547,239.824844 525.934875,326.979431 
	C525.874634,340.493225 524.158630,354.202911 521.372009,367.435272 
	C519.241821,377.550537 514.435486,387.148102 510.422729,396.811157 
	C502.938965,414.832825 490.729309,429.609039 476.829926,442.892303 
	C467.592896,451.719879 457.584808,459.805664 445.735504,465.191895 
	C437.705688,468.841980 429.901886,473.017090 421.756226,476.372833 
	C417.636719,478.069885 412.983032,478.470337 407.173889,479.769440 
	C406.464233,467.814850 406.982513,455.379578 406.888000,442.981476 
	C406.791412,430.317047 406.866608,417.651306 406.866608,404.986145 
	C406.866608,392.487640 406.866608,379.989105 406.866608,367.490601 
	C406.866608,354.825439 406.866638,342.160278 406.866608,329.495117 
	C406.866608,316.830078 406.866577,304.165039 406.866486,291.000000 
z"/>
</svg>